<?xml version="1.0" encoding="UTF-8"?>
<svg id="Artwork" xmlns="http://www.w3.org/2000/svg" xmlns:xlink="http://www.w3.org/1999/xlink" viewBox="0 0 1425.21 429.53">
  <defs>
    <style>
      .shape {
        fill: url(#linear-gradient);
      }

      .shape, .coral, .erm {
        stroke-width: 0px;
      }

      .coral {
        fill: #414242;
      }

      .erm {
        fill: #41929d;
      }
    </style>
    <linearGradient id="linear-gradient" x1="246.97" y1="76.74" x2="246.97" y2="368.73" gradientUnits="userSpaceOnUse">
      <stop offset="0" stop-color="#4e83d6"/>
      <stop offset=".3" stop-color="#5086d3"/>
      <stop offset=".58" stop-color="#5892ca"/>
      <stop offset=".86" stop-color="#66a4bb"/>
      <stop offset="1" stop-color="#70b2b1"/>
    </linearGradient>
  </defs>
  <g>
    <path class="coral" d="M486.48,188.05c24.24,0,40.57,12.65,45.84,34.43h-26.52c-2.81-8.26-9.31-13.52-19.5-13.52-13.7,0-22.83,10.36-22.83,29.33s9.13,29.16,22.83,29.16c10.19,0,16.51-4.57,19.5-13.35h26.52c-5.27,20.73-21.6,34.43-45.84,34.43-28.1,0-48.13-19.67-48.13-50.23s20.02-50.23,48.13-50.23Z"/>
    <path class="coral" d="M593.62,288.51c-28.1,0-49.36-19.67-49.36-50.23s21.96-50.23,50.06-50.23,50.06,19.5,50.06,50.23-22.48,50.23-50.76,50.23ZM593.62,267.08c13,0,25.47-9.48,25.47-28.8s-12.12-28.81-25.12-28.81-24.77,9.31-24.77,28.81,11.24,28.8,24.42,28.8Z"/>
    <path class="coral" d="M687.06,286.93h-24.59v-97.31h24.59v15.1c6.15-10.01,16.33-16.51,29.86-16.51v25.82h-6.5c-14.58,0-23.36,5.62-23.36,24.41v48.48Z"/>
    <path class="coral" d="M771.55,188.05c15.63,0,26.35,7.38,32.14,15.46v-13.88h24.77v97.31h-24.77v-14.23c-5.8,8.43-16.86,15.81-32.32,15.81-24.59,0-44.26-20.2-44.26-50.58s19.67-49.88,44.44-49.88ZM777.87,209.65c-13.17,0-25.64,9.84-25.64,28.28s12.47,28.98,25.64,28.98,25.82-10.19,25.82-28.63-12.3-28.63-25.82-28.63Z"/>
    <path class="coral" d="M852.52,156.96h24.59v129.97h-24.59v-129.97Z"/>
    <path class="erm" d="M949.72,288.51c-28.28,0-48.83-19.67-48.83-50.23s20.02-50.23,48.83-50.23,47.95,19.15,47.95,48.13c0,3.16-.18,6.32-.7,9.48h-71.13c1.23,14.4,11.06,22.48,23.36,22.48,10.54,0,16.33-5.27,19.5-11.77h26.52c-5.27,17.91-21.43,32.14-45.49,32.14ZM926.01,229.15h46.19c-.35-12.82-10.54-20.9-23.18-20.9-11.77,0-21.08,7.55-23.01,20.9Z"/>
    <path class="erm" d="M1040.18,286.93h-24.59v-97.31h24.59v15.1c6.15-10.01,16.33-16.51,29.86-16.51v25.82h-6.5c-14.58,0-23.36,5.62-23.36,24.41v48.48Z"/>
    <path class="erm" d="M1222.67,233.19c0-15.46-8.61-23.54-21.6-23.54s-21.78,8.08-21.78,23.54v53.75h-24.59v-53.75c0-15.46-8.61-23.54-21.6-23.54s-21.96,8.08-21.96,23.54v53.75h-24.59v-97.31h24.59v11.77c6.15-8.08,16.51-13.17,28.63-13.17,15.11,0,27.58,6.5,34.25,18.62,6.32-11.06,19.14-18.62,33.37-18.62,23.36,0,39.87,14.75,39.87,41.63v57.08h-24.59v-53.75Z"/>
  </g>
  <path class="shape" d="M390.5,243.24c-3.43-2.73-10.06-.84-18.18,5.16-10.78,7.96-19.78,10.19-24.06,10.81.47-.9,1.06-1.93,1.56-2.8,1.76-3.08,3.95-6.92,5.08-10.79,2.2-7.58,1.29-13.88-2.37-16.44-1.69-1.18-3.83-1.42-5.72-.62-3.34,1.41-5.19,5.68-5.06,11.71.38,17.96-23.87,26.81-43.36,33.93-3.61,1.32-7,2.56-10.01,3.78,15.79-25.87,17.47-29.48,19.55-33.94.78-1.67,1.58-3.39,3.27-6.54,7.77-14.56,11.99-18.52,26.88-18.61,5.93-.04,9.55-3.74,9.62-7.3.08-3.63-3.35-7.42-11.17-7.71-9.6-.35-15.62,3.83-19.2,6.33-.13.09-.28.19-.42.29.37-1.97,1.19-4.89,1.94-7.56,2.07-7.34,4.91-17.39,5.02-27.54.11-9.68-5.52-10.69-7.25-10.77-4.69-.23-8.68,3.95-9.33,9.7-.96,8.53-2.65,23.54-4.41,28.41-1.23-1.46-2.75-3.88-3.44-4.97-.95-1.51-1.43-2.26-1.93-2.75-1.67-1.66-4.02-2.28-6.13-1.64-2.38.73-3.93,2.87-4.03,5.59-.09,2.46.82,7.54,7.98,13.91,2.72,2.42,3.56,6.1,2.64,11.6-.78,4.71-5.72,13.67-8.43,18.21-.8-.71-1.5-1.4-2.13-2.01-2.12-2.07-5.33-5.21-8.95-2.57-2.8,2.04-1.33,4.95-.15,7.3,1.65,3.27,3.69,7.33.48,12.44-1.22,1.82-2.8,4.74-4.63,8.13-2.69,4.98-8.82,16.33-11.89,18.24-3.45-3.27-8.08-23.02-7.18-31.3.09-.82,3.41-2.95,5.84-4.5,5.25-3.36,12.44-7.97,19.37-16.05,3.35-3.9,4.39-7.71,2.86-10.44-.96-1.7-2.81-2.75-4.97-2.81-2.78-.1-5.53,1.51-7.31,4.24-4.21,6.45-15.59,12.7-18.55,12.4-2.52-2.76-1.07-4.71,2.81-8.49,1.39-1.36,2.71-2.64,3.42-4.03.97-1.88.25-3.21-.27-3.82-1.35-1.61-3.72-1.79-6.27-1.66,8.95-18.98,12.53-20.23,17.37-21.92,2.95-1.03,6.62-2.31,11.61-6.53,3.63-3.07,5.28-7.29,4.2-10.75-.67-2.16-2.34-3.68-4.57-4.17-1.96-.43-5.09-.23-8.87,3.17-.21.19-.53.51-.93.91-4.97,4.93-6.99,5.68-7.66,5.76-.13-.85.39-5.15,16.03-21.04,7.15-7.27,19.73-22.54,21.79-27.95,2.4-6.32-.31-10.31-4.08-11.46-3.82-1.17-9.01.62-11.51,6.3-2.85,6.46-13.66,19.39-18.9,23.7-.52-5.82-1.42-15.47-8.75-20.28-3.56-2.34-6.81-1.52-8.52-.12-2.49,2.06-2.6,5.65-.28,8.54,5.97,7.42,4.61,18.26,2.75,26.87-2.89,13.43-10.82,32.83-14.83,39.29-1.65-2.54-2.78-4.06-3.59-5h0c1.25-2.46,3.58-7.02,3.88-11.08.7-5.67-2.33-8.63-5.65-9.05-3.18-.39-6.87,1.63-7.83,6.26l-.16.8c-.21,1.07-.74,3.78-1.43,4.6-.95-.32-3.91-1.82-9.95-5.7.69-.94,1.57-2.08,2.56-3.36,4.83-6.28,12.14-15.78,14.55-23.23,1.47-4.53-.8-7.46-3.52-8.27-2.79-.83-6.54.31-8.63,4.71-2.53,5.31-5.07,9.39-7.08,12.13-.87-7.13-3.74-14.68-8.57-22.53,2.97-7.79,13.25-43.28,8.5-63.51-1.6-6.8-6.06-8.55-9.41-7.98-3.55.61-6.58,4.09-5.51,8.85,3.69,16.37-1.73,39.52-4.94,49.27-4.83-6.6-7.47-11.6-8.72-13.96l-.3-.57c-2.74-5.14-6.37-6.13-8.29-6.26-2.36-.16-4.61.79-5.98,2.56-1.95,2.5-1.88,6.09.17,9.59.41.7,1.85,2.74,4.83,6.92,4.68,6.59,11.75,16.54,14.75,21.55,5.48,9.13,7.25,15.61,7.38,21.51-.49-.37-.96-.72-1.4-1.06-7.05-5.35-14.77-16.08-19.67-27.34-.15-.34-.3-.72-.46-1.12-1.37-3.39-3.93-9.7-10.89-8.6-2.2.35-3.93,1.44-5,3.16-1.93,3.09-1.21,7.67.36,10.83.2.41.45.94.74,1.58,2.44,5.31,8.14,17.75,21.06,28.91,4.48,3.87,8.76,7.12,13.04,9.89-.12.77-.23,1.51-.34,2.23-.49,3.26-1.08,7.26-1.85,8.5-1.69-.32-3.24-2.31-4.01-3.3-.27-.35-.49-.63-.66-.81-3.17-3.42-7.23-3.69-9.6-2.18-2.25,1.42-3.53,4.8.24,9.65,3.21,4.12,6.64,5.97,9.15,7.32,1.11.6,2.06,1.11,2.57,1.61,1.63,1.6,2.99,7.8,2.25,12.76-.38,2.53-1.15,3.49-1.38,3.63-1.71.8-4.62-.59-6.77-3.23-2.82-3.46-6.05-5.24-9.07-4.99-1.92.15-3.48,1.11-4.29,2.63-1.28,2.4-.42,5.72,2.36,9.09,1.86,2.26,5.17,4.01,8.67,5.86,2.44,1.29,4.96,2.62,6.87,4.08,5.92,4.53,7.92,11.63,6.72,13.61-1.12.79-7.67,1.81-16.6-3.59-17.38-10.5-23.65-15.76-28.78-47.71-.66-4.09-4.32-6.98-8.55-6.77-3.55.2-7.15,2.83-7.22,8.28-.15,13.2,7.13,27.47,14.06,36.92-13.75-3.6-21.43-6.63-23.64-21.67-.49-3.36-2.85-6.94-7.01-7.39-2.23-.24-4.21.29-5.74,1.52-2.03,1.63-3.04,4.35-2.84,7.65.93,15.57,13.38,24.14,20.16,27.68-3.96,1.52-10.93,2.73-15.27,1.76-2.76-.62-5.66.06-7.55,1.78-1.7,1.54-2.29,3.63-1.58,5.59.55,1.53,2.42,4.25,8.72,5.38,11.45,2.05,21.12-2.6,26.9-5.38,1.57-.75,3.52-1.69,4.11-1.77,9.22-.33,17.4,2.91,22.59,5.63-4.71,1.57-6.73,1.82-7.47,1.84-2.63.08-4.83,1.16-5.9,2.89-.91,1.48-.84,3.21.18,4.61,1.26,1.73,3.75,2.66,6.78,2.55,4.98-.17,8.77-1.42,11.82-2.42,3.74-1.23,5.18-1.58,6.65-.72,11.5,6.73,20.93,16.65,26.55,27.94,5.09,10.24,5.6,18.77,3.91,22.37-1.21,2.58-6.11,3.34-11.3,4.15-8.75,1.35-20.72,3.21-19.67,16.42.82,10.23,20.15,15.8,31.61,18.21,11.84,2.49,26.19,3.97,40.54,3.97,27.4,0,54.79-5.38,64.65-19.38,2.19-3.11,2.81-6.03,1.84-8.67-1.87-5.1-8.96-7.76-16.47-10.58-16.08-6.04-17.19-9.14-17-12.87.19-3.92.64-13.04,36.72-30.94.02,0,.03.01.05.02,4.57,1.91,14.07,5.88,19.82,1.75,3.41-2.45,2.68-5.03,2.21-6.02-.74-1.56-2.43-2.81-4.39-3.73,4.16-1.74,7.19-2.91,8.14-3.22,4.75-1.59,9.15-2.88,13.4-4.13,13.29-3.9,23.78-6.99,30.71-15.29,6.07-7.27,4.85-10.77,2.77-12.43ZM217.62,238.44c1.47-1.08,2.99-2.2,3.27-3.97.18-1.13-.26-2.19-1.21-2.91-.85-.64-1.89-.88-3.12-.88-1.76,0-3.89.5-6.32,1.08-.95.22-2.24.53-3.12.69-2.84-4.12-2.78-18.21.04-30.62,4.15,2.74,8.34,5.65,11.44,9.86,19.25,26.12,18.16,64.64,15.6,86.16-2.5-10.33-6.95-19.46-11.27-27.36-1.08-1.97-2.14-3.86-3.15-5.67-3.64-6.47-6.78-12.05-7.17-15.78-.66-6.42,2.49-8.74,5.02-10.59Z"/>
</svg>